<svg height="357pt" viewBox="0 0 357 357.06709" width="357pt" xmlns="http://www.w3.org/2000/svg"><path d="m249.890625 189.8125h-29.808594c-3.769531 0-6.824219 3.054688-6.824219 6.828125 0 3.769531 3.054688 6.824219 6.824219 6.824219h29.808594c3.769531 0 6.824219-3.054688 6.824219-6.824219 0-3.773437-3.054688-6.828125-6.824219-6.828125zm0 0"/><path d="m163.875 146.707031v-44.972656c0-3.773437-3.058594-6.828125-6.828125-6.828125s-6.828125 3.054688-6.828125 6.828125v44.972656c0 3.769531 3.058594 6.828125 6.828125 6.828125s6.828125-3.058594 6.828125-6.828125zm0 0"/><path d="m156.742188 0c-3.769532 0-6.824219 3.054688-6.824219 6.828125v36.992187c-81.84375 3.53125-147.570313 70.113282-149.777344 152.285157-.015625.1875-.1054688.34375-.1054688.535156 0 .148437.0742188.269531.0820318.414063-.023438 1.101562-.0820318 2.195312-.0820318 3.304687 0 86.410156 70.2968748 156.707031 156.7070318 156.707031 85.367187 0 154.964843-68.625 156.632812-153.597656h36.898438c3.769531 0 6.824218-3.058594 6.824218-6.828125 0-110.269531-88.003906-196.640625-200.355468-196.640625zm103.660156 298.660156-18.558594-17.96875c-2.707031-2.621094-7.039062-2.554687-9.652344.15625-2.621094 2.707032-2.550781 7.03125.160156 9.652344l18.191407 17.609375c-23.457031 20.445313-53.582031 33.296875-86.667969 34.941406v-23.53125c0-3.769531-3.058594-6.828125-6.828125-6.828125s-6.828125 3.058594-6.828125 6.828125v23.5625c-33.238281-1.511719-63.523438-14.332031-87.097656-34.808593l14.777344-15.265626c2.621093-2.707031 2.550781-7.027343-.160157-9.648437-2.707031-2.625-7.03125-2.554687-9.648437.15625l-14.839844 15.328125c-23.773438-24.972656-38.605469-58.445312-39.40625-95.378906h27.148438c3.769531 0 6.828124-3.054688 6.828124-6.824219 0-3.773437-3.058593-6.828125-6.828124-6.828125h-26.769532c2.210938-30.117188 13.667969-57.6875 31.703125-79.773438l19.652344 19.027344c1.324219 1.28125 3.039063 1.921875 4.746094 1.921875 1.785156 0 3.570312-.695312 4.90625-2.078125 2.621093-2.707031 2.550781-7.03125-.15625-9.652344l-20.015625-19.378906c24.511718-24.804687 58.023437-40.5625 95.160156-42.25v22.957032c0 3.769531 3.054688 6.824218 6.828125 6.824218 3.769531 0 6.824219-3.054687 6.824219-6.824218v-22.925782c33.691406 1.671875 64.289062 14.988282 87.925781 36.082032l-17.523437 18.101562c-2.625 2.707031-2.554688 7.027344.15625 9.648438 1.320312 1.285156 3.035156 1.921874 4.746093 1.921874 1.78125 0 3.566407-.695312 4.902344-2.078124l17.460937-18.035157c21.414063 23.105469 35.277344 53.210938 37.726563 86.511719h-26.167969c-3.769531 0-6.824218 3.054688-6.824218 6.828125 0 3.769531 3.054687 6.824219 6.824218 6.824219h26.542969c-.796875 36.84375-15.5625 70.242187-39.238281 95.195312zm52.65625-108.847656c-5.296875-79.257812-69.746094-142.554688-149.488282-145.992188v-30.054687c99.097657 3.332031 176.289063 78.941406 179.753907 176.046875zm0 0"/><path d="m133.328125 156.699219c-2.011719-1.242188-4.527344-1.351563-6.644531-.300781l-20.476563 10.242187c-3.375 1.683594-4.742187 5.785156-3.054687 9.15625s5.78125 4.753906 9.160156 3.054687l10.597656-5.300781v70.875c0 3.769531 3.058594 6.828125 6.828125 6.828125s6.828125-3.058594 6.828125-6.828125v-81.921875c0-2.363281-1.226562-4.558594-3.238281-5.804687zm0 0"/><path d="m198.007812 182.984375c3.769532 0 6.824219-3.054687 6.824219-6.824219 0-3.769531-3.054687-6.828125-6.824219-6.828125h-34.132812c-3.769531 0-6.828125 3.058594-6.828125 6.828125v31.027344c0 3.773438 3.058594 6.828125 6.828125 6.828125h17.734375c5.277344 0 9.570313 3.625 9.570313 8.078125v6.816406c0 4.792969-4.59375 8.6875-10.238282 8.6875-5.648437 0-10.242187-3.894531-10.242187-8.6875 0-3.773437-3.054688-6.828125-6.824219-6.828125s-6.828125 3.054688-6.828125 6.828125c0 12.320313 10.71875 22.34375 23.894531 22.34375 13.171875 0 23.890625-10.023437 23.890625-22.34375v-6.816406c0-11.980469-10.414062-21.730469-23.222656-21.730469h-10.910156v-17.378906zm0 0"/></svg>