<svg height="403pt" viewBox="-22 0 403 403.81952" width="403pt" xmlns="http://www.w3.org/2000/svg"><path d="m157.433594 0c-.003906 0-.007813 0-.011719 0-1.808594 0-3.542969.71875-4.820313 1.996094-1.285156 1.28125-2.003906 3.019531-2.003906 4.832031v38.535156c-81.984375 3.378907-147.871094 70.023438-150.082031 152.296875-.015625.183594-.105469.34375-.105469.535156 0 .144532.074219.269532.082032.414063-.019532 1.101563-.082032 2.195313-.082032 3.300781 0 84.222656 66.792969 153.109375 150.1875 156.542969v38.539063c0 1.8125.71875 3.550781 2.003906 4.832031 1.277344 1.277343 3.011719 1.996093 4.820313 1.996093h.011719c111.164062-.175781 201.601562-90.75 201.601562-201.910156 0-111.164062-90.4375-201.738281-201.601562-201.910156zm-143.210938 205.019531h27.148438c3.769531 0 6.828125-3.054687 6.828125-6.824219 0-3.773437-3.058594-6.828124-6.828125-6.828124h-26.773438c2.214844-30.117188 13.671875-57.6875 31.703125-79.773438l19.652344 19.027344c1.328125 1.28125 3.039063 1.921875 4.75 1.921875 1.785156 0 3.566406-.695313 4.902344-2.078125 2.625-2.707032 2.554687-7.03125-.152344-9.652344l-20.015625-19.378906c24.511719-24.804688 58.023438-40.5625 95.160156-42.25v22.957031c0 3.769531 3.054688 6.828125 6.824219 6.828125s6.828125-3.058594 6.828125-6.828125v-22.925781c33.6875 1.671875 64.289062 14.984375 87.921875 36.082031l-17.523437 18.097656c-2.621094 2.707031-2.550782 7.03125.160156 9.652344 1.320312 1.28125 3.035156 1.921875 4.746094 1.921875 1.78125 0 3.566406-.695312 4.902343-2.082031l17.457031-18.03125c21.417969 23.105469 35.28125 53.207031 37.730469 86.507812h-26.167969c-3.769531 0-6.828124 3.058594-6.828124 6.828125 0 3.769532 3.058593 6.828125 6.828124 6.828125h26.542969c-.800781 36.84375-15.566406 70.238281-39.242187 95.195313l-18.558594-17.96875c-2.707031-2.625-7.035156-2.558594-9.648438.15625-2.625 2.707031-2.554687 7.03125.15625 9.648437l18.191407 17.613281c-23.457031 20.445313-53.578125 33.296876-86.667969 34.9375v-23.53125c0-3.769531-3.058594-6.824218-6.828125-6.824218s-6.824219 3.054687-6.824219 6.824218v23.5625c-33.242187-1.507812-63.523437-14.328124-87.097656-34.808593l14.773438-15.261719c2.621093-2.707031 2.554687-7.03125-.15625-9.648438-2.707032-2.628906-7.035157-2.558593-9.652344.15625l-14.835938 15.328126c-23.777344-24.972657-38.605468-58.445313-39.40625-95.378907zm150.027344 185.015625v-31.59375c83.113281-3.742187 149.582031-72.511718 149.582031-156.527344 0-84.019531-66.46875-152.789062-149.582031-156.53125v-31.597656c100.488281 3.769532 181.132812 86.769532 181.132812 188.125 0 101.355469-80.644531 184.355469-181.132812 188.125zm0 0"/><path d="m157.425781 225.5c0 15.054688 12.25 27.308594 27.304688 27.308594 15.058593 0 27.308593-12.253906 27.308593-27.308594v-27.304688c0-15.058593-12.25-27.308593-27.308593-27.308593-15.054688 0-27.304688 12.25-27.304688 27.308593zm13.652344-27.304688c0-7.53125 6.125-13.65625 13.652344-13.65625 7.53125 0 13.65625 6.125 13.65625 13.65625v27.304688c0 7.53125-6.125 13.652344-13.65625 13.652344-7.527344 0-13.652344-6.121094-13.652344-13.652344zm0 0"/><path d="m123.292969 239.152344c-7.53125 0-13.65625-6.121094-13.65625-13.652344 0-3.769531-3.054688-6.828125-6.824219-6.828125s-6.828125 3.058594-6.828125 6.828125c0 15.054688 12.25 27.308594 27.308594 27.308594 15.054687 0 27.304687-12.253906 27.304687-27.308594 0-8.144531-3.585937-15.472656-9.261718-20.480469 5.675781-5.007812 9.261718-12.332031 9.261718-20.480469 0-15.054687-12.25-27.304687-27.304687-27.304687-15.058594 0-27.308594 12.25-27.308594 27.304687 0 3.769532 3.058594 6.828126 6.828125 6.828126s6.824219-3.058594 6.824219-6.828126c0-7.527343 6.125-13.652343 13.65625-13.652343 7.527343 0 13.652343 6.125 13.652343 13.652343 0 7.53125-6.125 13.65625-13.652343 13.65625-3.773438 0-6.828125 3.054688-6.828125 6.824219s3.054687 6.828125 6.828125 6.828125c7.527343 0 13.652343 6.121094 13.652343 13.652344s-6.125 13.652344-13.652343 13.652344zm0 0"/><path d="m157.425781 150.40625c3.769531 0 6.824219-3.054688 6.824219-6.824219v-34.136719c0-3.769531-3.054688-6.824218-6.824219-6.824218s-6.828125 3.054687-6.828125 6.824218v34.136719c0 3.769531 3.058594 6.824219 6.828125 6.824219zm0 0"/><path d="m157.425781 252.808594c-3.769531 0-6.828125 3.054687-6.828125 6.824218v34.132813c0 3.769531 3.058594 6.828125 6.828125 6.828125s6.824219-3.058594 6.824219-6.828125v-34.132813c0-3.769531-3.054688-6.824218-6.824219-6.824218zm0 0"/></svg>