<svg height="398pt" viewBox="0 0 398.65685 398" width="398pt" xmlns="http://www.w3.org/2000/svg"><path d="m199.640625.328125c-.003906 0-.007813 0-.011719 0-1.8125 0-3.542968.71875-4.824218 1.996094-1.28125 1.28125-2.003907 3.019531-2.003907 4.832031v35.953125c-79.878906 3.289063-144.488281 66.644531-149.792969 146h-36.089843c-3.71875 0-6.753907 2.980469-6.824219 6.695313l-.0390625 1.386718c-.0273437.816406-.0546875 1.636719-.0546875 2.460938 0 109.910156 89.417969 199.328125 199.328125 199.328125 109.90625 0 199.328125-89.417969 199.328125-199.328125 0-109.734375-89.277344-199.148438-199.015625-199.324219zm-6.839844 56.597656v22.957031c0 3.769532 3.058594 6.824219 6.828125 6.824219 3.769532 0 6.828125-3.054687 6.828125-6.824219v-22.925781c33.6875 1.671875 64.289063 14.984375 87.921875 36.078125l-17.523437 18.101563c-2.625 2.707031-2.554688 7.03125.15625 9.648437 1.324219 1.285156 3.035156 1.925782 4.746093 1.925782 1.785157 0 3.566407-.695313 4.902344-2.082032l17.460938-18.035156c21.414062 23.109375 35.28125 53.210938 37.726562 86.511719h-26.164062c-3.773438 0-6.828125 3.058593-6.828125 6.828125 0 3.769531 3.054687 6.824218 6.828125 6.824218h26.539062c-.796875 36.84375-15.5625 70.242188-39.238281 95.195313l-18.558594-17.96875c-2.707031-2.621094-7.039062-2.554687-9.652343.160156-2.621094 2.707031-2.550782 7.027344.160156 9.648438l18.191406 17.609375c-23.457031 20.449218-53.582031 33.296875-86.667969 34.941406v-23.53125c0-3.769531-3.058593-6.828125-6.828125-6.828125-3.769531 0-6.828125 3.058594-6.828125 6.828125v23.5625c-33.238281-1.511719-63.523437-14.328125-87.097656-34.808594l14.777344-15.261718c2.621093-2.707032 2.550781-7.03125-.160157-9.652344-2.707031-2.625-7.03125-2.554688-9.648437.160156l-14.839844 15.324219c-23.773437-24.96875-38.605469-58.445313-39.40625-95.378907h27.148438c3.769531 0 6.828125-3.054687 6.828125-6.824218 0-3.769532-3.058594-6.828125-6.828125-6.828125h-26.769531c2.210937-30.113281 13.667968-57.6875 31.703124-79.773438l19.652344 19.027344c1.324219 1.28125 3.039063 1.921875 4.746094 1.921875 1.785156 0 3.570312-.695312 4.90625-2.074219 2.621094-2.710937 2.550781-7.035156-.15625-9.65625l-20.015625-19.378906c24.511719-24.800781 58.023437-40.558594 95.160156-42.246094zm6.523438 328.398438c-101.34375 0-183.984375-81.609375-185.644531-182.5625h29.015624c1.667969 84.972656 71.261719 153.597656 156.628907 153.597656 86.410156 0 156.710937-70.296875 156.710937-156.707031 0-84.019532-66.46875-152.785156-149.582031-156.527344v-29.007812c99.066406 3.765624 178.546875 85.605468 178.546875 185.535156 0 102.378906-83.292969 185.671875-185.675781 185.671875zm0 0"/><path d="m206.457031 206.484375c0 3.769531 3.054688 6.828125 6.824219 6.828125h17.738281c5.277344 0 9.570313 3.621094 9.570313 8.078125v6.8125c0 4.796875-4.59375 8.691406-10.242188 8.691406-5.644531 0-10.238281-3.894531-10.238281-8.691406 0-3.769531-3.058594-6.824219-6.828125-6.824219s-6.824219 3.054688-6.824219 6.824219c0 12.320313 10.71875 22.34375 23.890625 22.34375 13.175782 0 23.894532-10.023437 23.894532-22.34375v-6.8125c0-11.980469-10.417969-21.730469-23.222657-21.730469h-10.910156v-17.378906h27.304687c3.769532 0 6.828126-3.054688 6.828126-6.828125 0-3.769531-3.058594-6.824219-6.828126-6.824219h-34.132812c-3.769531 0-6.824219 3.054688-6.824219 6.824219zm0 0"/><path d="m145.015625 216.414062h27.304687v27.308594c0 3.769532 3.058594 6.824219 6.828126 6.824219 3.769531 0 6.828124-3.054687 6.828124-6.824219v-27.308594c3.769532 0 6.824219-3.054687 6.824219-6.824218 0-3.773438-3.054687-6.828125-6.824219-6.828125v-6.828125c0-3.769532-3.058593-6.824219-6.828124-6.824219-3.769532 0-6.828126 3.054687-6.828126 6.824219v6.828125h-16.257812l22.367188-44.734375c1.683593-3.375.320312-7.472656-3.054688-9.160156-3.386719-1.683594-7.476562-.316407-9.160156 3.054687l-27.304688 54.613281c-1.058594 2.117188-.945312 4.628906.300782 6.644532 1.242187 2.007812 3.4375 3.234374 5.804687 3.234374zm0 0"/><path d="m199.628906 141.320312c3.769532 0 6.828125-3.054687 6.828125-6.824218v-27.308594c0-3.769531-3.058593-6.828125-6.828125-6.828125-3.769531 0-6.828125 3.058594-6.828125 6.828125v27.308594c0 3.769531 3.058594 6.824218 6.828125 6.824218zm0 0"/><path d="m104.054688 195.933594c0 3.769531 3.058593 6.828125 6.828124 6.828125h13.652344c3.769532 0 6.828125-3.058594 6.828125-6.828125 0-3.769532-3.058593-6.824219-6.828125-6.824219h-13.652344c-3.769531 0-6.828124 3.054687-6.828124 6.824219zm0 0"/></svg>