<?xml version="1.0" encoding="iso-8859-1"?>
<!-- Generator: Adobe Illustrator 19.0.0, SVG Export Plug-In . SVG Version: 6.00 Build 0)  -->
<svg version="1.1" id="Capa_1" xmlns="http://www.w3.org/2000/svg" xmlns:xlink="http://www.w3.org/1999/xlink" x="0px" y="0px"
	 viewBox="0 0 512.001 512.001" style="enable-background:new 0 0 512.001 512.001;" xml:space="preserve">
<g>
	<g>
		<path d="M92.714,173.178l-30.076-30.076c-2.934-2.932-7.689-2.932-10.623,0c-2.933,2.934-2.933,7.689,0,10.623l17.253,17.253
			H7.511c-4.149,0-7.511,3.363-7.511,7.511C0,182.638,3.363,186,7.511,186h61.756l-17.252,17.252
			c-2.934,2.934-2.934,7.689-0.001,10.622c1.467,1.467,3.389,2.201,5.312,2.201c1.922,0.001,3.845-0.732,5.312-2.198l30.075-30.075
			c1.409-1.409,2.201-3.319,2.201-5.312C94.914,176.498,94.123,174.588,92.714,173.178z"/>
	</g>
</g>
<g>
	<g>
		<path d="M504.489,170.979h-61.756l17.253-17.253c2.933-2.934,2.933-7.689,0-10.623c-2.934-2.932-7.689-2.932-10.623,0
			l-30.076,30.076c-1.408,1.409-2.2,3.319-2.2,5.312c0,1.992,0.791,3.902,2.201,5.312l30.075,30.075c1.467,1.466,3.39,2.2,5.312,2.2
			s3.845-0.734,5.312-2.201c2.933-2.933,2.933-7.688-0.001-10.622l-17.252-17.252h61.756c4.149,0,7.511-3.363,7.511-7.511
			C512,174.341,508.638,170.979,504.489,170.979z"/>
	</g>
</g>
<g>
	<g>
		<path d="M458.275,439.786c-0.523-18.225-6.568-44.871-17.967-79.2c-4.39-13.221-8.734-24.981-11.605-32.519
			c-1.627-4.273-2.965-7.675-3.802-9.776c-0.215-0.54-0.423-1.063-0.631-1.566c-0.063-0.582-0.195-1.16-0.396-1.723l-15.504-43.265
			c-18.597-59.658-19.874-122.856-3.747-182.974c3.641-2.573,7.134-5.395,10.44-8.475c18.304-17.056,29.413-40.143,31.279-65.009
			c0.289-3.848-1.055-7.683-3.69-10.522c-2.657-2.864-6.422-4.507-10.328-4.507H378.92c-4.149,0-7.511,3.363-7.511,7.511
			s3.362,7.511,7.511,7.511h52.35c-1.827,20.661-11.192,39.808-26.448,54.024c-15.609,14.544-35.962,22.555-57.31,22.555
			c-46.511,0-85.62-42.874-86.004-43.302c-1.424-1.588-3.457-2.494-5.59-2.496c-0.003,0-0.005,0-0.008,0
			c-2.129,0-4.162,0.907-5.587,2.49c-0.389,0.433-39.498,43.308-86.009,43.308c-21.349,0-41.702-8.01-57.31-22.555
			C91.748,55.081,82.383,35.934,80.556,15.273h263.415c4.149,0,7.511-3.363,7.511-7.511c0-4.148-3.362-7.511-7.511-7.511H79.503
			c-3.906,0-7.671,1.643-10.328,4.507c-2.635,2.839-3.98,6.674-3.69,10.522c1.866,24.867,12.975,47.953,31.279,65.009
			c3.487,3.249,7.177,6.219,11.035,8.903c16.006,59.982,14.689,123.031-3.864,182.546l-15.193,42.395
			c-0.092,0.181-0.195,0.355-0.274,0.545c-0.679,1.649-16.741,40.822-26.87,79.193c-0.087,0.331-0.143,0.666-0.185,1.002
			c-4.217,16.178-7.322,32.121-7.69,44.914c-0.845,29.438-0.513,49.186-0.242,58.334c0.227,7.643,6.396,13.63,14.046,13.63h376.944
			c7.649,0,13.819-5.987,14.046-13.628C458.789,488.972,459.12,469.225,458.275,439.786z M252.329,496.727L252.329,496.727H68.472
			c-0.261-9.364-0.537-28.437,0.269-56.51c0.295-10.276,2.611-23.05,5.901-36.391l30.928,2.678
			c44.92,3.891,87.826,18.838,127.525,44.426l19.234,12.397V496.727z M241.234,438.304c-41.777-26.928-86.984-42.662-134.368-46.766
			l-28.284-2.449c7.745-27.067,17.881-53.592,22.003-64.041h38.186c4.149,0,7.511-3.363,7.511-7.511
			c0-4.148-3.363-7.511-7.511-7.511h-32.599l11.958-33.367c0.035-0.098,0.067-0.197,0.099-0.295
			c18.034-57.756,20.541-118.709,7.447-177.332c12.099,5.124,25.197,7.843,38.639,7.843c42.719,0,78.262-29.762,91.598-42.592
			c13.337,12.83,48.88,42.592,91.598,42.592c13.638,0,26.923-2.796,39.169-8.066c-13.151,58.696-10.661,119.723,7.396,177.555
			c0.031,0.099,0.064,0.198,0.099,0.295l11.957,33.367h-232.41c-4.149,0-7.511,3.363-7.511,7.511c0,4.148,3.363,7.511,7.511,7.511
			H411.33c4.158,10.533,14.432,37.408,22.189,64.697l-20.706,1.793c-47.383,4.104-92.59,19.838-134.367,46.766l-18.605,11.993
			L241.234,438.304z M443.528,496.727H267.351v-33.399l19.233-12.397c39.699-25.588,82.604-40.536,127.524-44.426l23.41-2.026
			c3.205,13.104,5.451,25.63,5.741,35.739C444.065,468.29,443.79,487.362,443.528,496.727z"/>
	</g>
</g>
<g>
</g>
<g>
</g>
<g>
</g>
<g>
</g>
<g>
</g>
<g>
</g>
<g>
</g>
<g>
</g>
<g>
</g>
<g>
</g>
<g>
</g>
<g>
</g>
<g>
</g>
<g>
</g>
<g>
</g>
</svg>
