<svg id="icons" enable-background="new 0 0 64 64" height="512" viewBox="0 0 64 64" width="512" xmlns="http://www.w3.org/2000/svg"><g><g><path d="m19 42 6 10.5-6 10.5h-6-6l-6-10.5 6-10.5h6z" fill="#656d78"/></g><g><path d="m63 52.5-6 10.5h-6l6-10.5z" fill="#434a54"/></g><g><path d="m57 42 6 10.5h-6l-6-10.5z" fill="#545c66"/></g><g><path d="m51 42 6 10.5-6 10.5h-6-6l-4-7h10c1.93 0 3.5-1.57 3.5-3.5 0-1.931-1.57-3.5-3.5-3.5h-10l4-7h6z" fill="#656d78"/></g><g><path d="m31 52.5-2 3.5-4 7h-6l6-10.5z" fill="#434a54"/></g><g><path d="m45 49c1.93 0 3.5 1.569 3.5 3.5 0 1.93-1.57 3.5-3.5 3.5h-10-6l2-3.5-2-3.5h6z" fill="#ccd1d9"/></g><g><path d="m32 34c8.28 0 15-6.71 15-15 0-8.28-6.72-15-15-15-8.29 0-15 6.72-15 15 0 8.29 6.71 15 15 15zm0-33c9.94 0 18 8.06 18 18 0 9.939-8.06 18-18 18-9.939 0-18-8.061-18-18 0-9.94 8.061-18 18-18z" fill="#656d78"/></g><g><path d="m29 49 2 3.5h-6l-6-10.5h6z" fill="#545c66"/></g><g><path d="m32 4c8.28 0 15 6.72 15 15 0 8.29-6.72 15-15 15-8.29 0-15-6.71-15-15 0-8.28 6.71-15 15-15z" fill="#e6e9ed"/></g></g><g><g><g><g><path d="m19 64h-12c-.358 0-.69-.192-.868-.504l-6-10.5c-.176-.308-.176-.685 0-.992l6-10.5c.178-.312.51-.504.868-.504h12c.358 0 .69.192.868.504l6 10.5c.176.308.176.685 0 .992l-6 10.5c-.178.312-.51.504-.868.504zm-11.42-2h10.84l5.429-9.5-5.429-9.5h-10.84l-5.429 9.5z"/></g><g><path d="m25 64h-12c-.553 0-1-.447-1-1s.447-1 1-1h11.42l5.429-9.5-5.429-9.5h-11.42c-.553 0-1-.447-1-1s.447-1 1-1h12c.358 0 .69.192.868.504l6 10.5c.176.308.176.685 0 .992l-6 10.5c-.178.312-.51.504-.868.504z"/></g><g><path d="m31 53.5h-6c-.553 0-1-.447-1-1s.447-1 1-1h6c.553 0 1 .447 1 1s-.447 1-1 1z"/></g></g><g><g><path d="m51 64h-12c-.358 0-.69-.192-.868-.504l-4.002-7.004c-.274-.479-.107-1.091.372-1.364.479-.276 1.09-.107 1.364.372l3.714 6.5h10.84l5.429-9.5-5.429-9.5h-10.84l-3.712 6.496c-.274.479-.885.647-1.364.372-.479-.274-.646-.885-.372-1.364l4-7c.178-.312.51-.504.868-.504h12c.358 0 .69.192.868.504l6 10.5c.176.308.176.685 0 .992l-6 10.5c-.178.312-.51.504-.868.504z"/></g><g><path d="m57 64h-12c-.553 0-1-.447-1-1s.447-1 1-1h11.42l5.429-9.5-5.429-9.5h-11.42c-.553 0-1-.447-1-1s.447-1 1-1h12c.358 0 .69.192.868.504l6 10.5c.176.308.176.685 0 .992l-6 10.5c-.178.312-.51.504-.868.504z"/></g><g><path d="m63 53.5h-6c-.553 0-1-.447-1-1s.447-1 1-1h6c.553 0 1 .447 1 1s-.447 1-1 1z"/></g></g><g><path d="m45 57c-.553 0-1-.447-1-1s.447-1 1-1c1.379 0 2.5-1.121 2.5-2.5s-1.121-2.5-2.5-2.5c-.553 0-1-.447-1-1s.447-1 1-1c2.481 0 4.5 2.019 4.5 4.5s-2.019 4.5-4.5 4.5z"/></g><g><path d="m45 50h-16c-.553 0-1-.447-1-1s.447-1 1-1h16c.553 0 1 .447 1 1s-.447 1-1 1z"/></g><g><path d="m45 57h-16c-.553 0-1-.447-1-1s.447-1 1-1h16c.553 0 1 .447 1 1s-.447 1-1 1z"/></g></g><g><path d="m32 38c-10.477 0-19-8.523-19-19s8.523-19 19-19 19 8.523 19 19-8.523 19-19 19zm0-36c-9.374 0-17 7.626-17 17s7.626 17 17 17 17-7.626 17-17-7.626-17-17-17z"/></g><g><path d="m32 35c-8.822 0-16-7.178-16-16s7.178-16 16-16 16 7.178 16 16-7.178 16-16 16zm0-30c-7.72 0-14 6.28-14 14s6.28 14 14 14 14-6.28 14-14-6.28-14-14-14z"/></g><g><path d="m32 20c-.553 0-1-.447-1-1v-8.998c0-.553.447-1 1-1s1 .447 1 1v8.998c0 .553-.447 1-1 1z"/></g><g><path d="m38.362 26.363c-.256 0-.512-.098-.707-.293l-6.362-6.363c-.391-.391-.391-1.023 0-1.414s1.023-.391 1.414 0l6.362 6.363c.391.391.391 1.023 0 1.414-.195.196-.451.293-.707.293z"/></g></g></svg>