<?xml version="1.0" encoding="iso-8859-1"?>
<!-- Generator: Adobe Illustrator 19.0.0, SVG Export Plug-In . SVG Version: 6.00 Build 0)  -->
<svg version="1.1" id="Capa_1" xmlns="http://www.w3.org/2000/svg" xmlns:xlink="http://www.w3.org/1999/xlink" x="0px" y="0px"
	 viewBox="0 0 512.001 512.001" style="enable-background:new 0 0 512.001 512.001;" xml:space="preserve">
<g>
	<path style="fill:#F2BB80;" d="M256.001,77.025L256.001,77.025c32.973,0,59.702,26.73,59.702,59.702v34.116
		c0,32.973-26.73,59.702-59.702,59.702l0,0c-32.973,0-59.702-26.73-59.702-59.702v-34.116
		C196.299,103.755,223.028,77.025,256.001,77.025z"/>
	<path style="fill:#F2BB80;" d="M443.638,42.91h-51.174l32.18,177.001c-15.156-17.843-41.903-20.026-59.745-4.87
		c-4.964,4.222-8.896,9.527-11.48,15.506H158.584c-9.279-21.493-34.227-31.395-55.719-22.116
		c-5.979,2.584-11.284,6.508-15.506,11.48l32.18-177.001H68.365L8.662,230.546v85.289h119.405L165.918,512h180.703l37.314-196.165
		H503.34v-85.289L443.638,42.91z"/>
</g>
<g>
	<path style="fill:#EBB071;" d="M443.638,42.91h-51.174l32.18,177.001c-4.205-4.887-9.45-8.776-15.352-11.378
		c-3.42,26.858-19.454,78.876-85.059,149.947c-46.628,48.93-103.439,87.012-166.416,111.567l8.102,41.954h180.702l37.314-196.165
		H503.34v-85.289L443.638,42.91z"/>
	<path style="fill:#EBB071;" d="M85.423,128.199c6.618,0,13.177-1.288,19.301-3.795l14.815-81.494H68.365l-21.527,67.66
		C56.535,121.768,70.617,128.199,85.423,128.199z"/>
</g>
<g>
	<path style="fill:#E39D54;" d="M322.22,384.067H189.783c-14.934,0.051-28.598-8.392-35.233-21.774l15.267-7.625
		c3.753,7.591,11.497,12.375,19.966,12.341H322.22c8.469,0.034,16.214-4.751,19.966-12.341l15.267,7.625
		C350.817,375.674,337.154,384.118,322.22,384.067z"/>
	<rect x="247.511" y="281.71" style="fill:#E39D54;" width="17.06" height="221.75"/>
	<path style="fill:#E39D54;" d="M302.91,426.711h-93.818c-16.486,0-29.851-13.365-29.851-29.851
		c0-16.486,13.365-29.851,29.851-29.851h93.818c16.486,0,29.851,13.365,29.851,29.851
		C332.762,413.346,319.397,426.711,302.91,426.711z M209.092,384.067c-7.062,0-12.793,5.731-12.793,12.793
		s5.731,12.793,12.793,12.793h93.818c7.062,0,12.793-5.731,12.793-12.793s-5.731-12.793-12.793-12.793H209.092z"/>
	<path style="fill:#E39D54;" d="M302.91,469.356h-93.818c-16.486,0-29.851-13.365-29.851-29.851
		c0-16.486,13.365-29.851,29.851-29.851h93.818c16.486,0,29.851,13.365,29.851,29.851
		C332.762,455.991,319.397,469.356,302.91,469.356z M209.092,426.711c-7.062,0-12.793,5.731-12.793,12.793
		s5.731,12.793,12.793,12.793h93.818c7.062,0,12.793-5.731,12.793-12.793s-5.731-12.793-12.793-12.793H209.092z"/>
	<path style="fill:#E39D54;" d="M290.117,512.001h-68.231c-16.486,0-29.851-13.365-29.851-29.851
		c0-16.486,13.365-29.851,29.851-29.851l0,0h68.231c16.486,0,29.851,13.365,29.851,29.851S306.603,512.001,290.117,512.001z
		 M221.886,469.356c-7.062,0-12.793,5.731-12.793,12.793s5.731,12.793,12.793,12.793h68.231c7.062,0,12.793-5.731,12.793-12.793
		s-5.731-12.793-12.793-12.793H221.886z"/>
	<path style="fill:#E39D54;" d="M136.596,281.72h-23.574c-14.934,0.051-28.597-8.392-35.233-21.774l15.267-7.625
		c3.753,7.591,11.497,12.375,19.966,12.341h23.574V281.72z"/>
	<path style="fill:#E39D54;" d="M398.98,281.72h-23.574v-17.058h23.574c8.469,0.034,16.213-4.751,19.966-12.341l15.267,7.625
		C427.578,273.327,413.914,281.771,398.98,281.72z"/>
	<polygon style="fill:#E39D54;" points="256.078,290.402 160.656,273.054 163.71,256.269 255.925,273.037 339.619,256.303 
		342.962,273.02 	"/>
</g>
<circle style="fill:#4398D1;" cx="93.991" cy="59.959" r="51.17"/>
<circle style="fill:#E5E5E5;" cx="93.991" cy="59.959" r="17.06"/>
<path style="fill:#EBB071;" d="M277.528,81.085c2.67,6.866,4.051,14.158,4.06,21.527v34.116
	c0.051,32.922-26.593,59.651-59.515,59.702c-7.429,0.009-14.789-1.365-21.715-4.06c11.949,30.73,46.551,45.954,77.281,34.005
	c22.909-8.913,38.013-30.951,38.065-55.532v-34.116C315.687,112.079,300.522,89.972,277.528,81.085z"/>
<path style="fill:#E3A35F;" d="M426.58,128.199c-6.618,0-13.177-1.288-19.301-3.795L392.464,42.91h51.174l21.527,67.66
	C455.476,121.768,441.395,128.199,426.58,128.199z"/>
<circle style="fill:#4398D1;" cx="418.091" cy="59.959" r="51.17"/>
<circle style="fill:#E5E5E5;" cx="418.091" cy="59.959" r="17.06"/>
<path d="M93.952,85.554c14.132,0,25.587-11.454,25.587-25.587S108.085,34.38,93.952,34.38S68.365,45.835,68.365,59.967
	S79.828,85.554,93.952,85.554z M93.952,51.439c4.708,0,8.529,3.821,8.529,8.529c0,4.708-3.821,8.529-8.529,8.529
	s-8.529-3.821-8.529-8.529S89.244,51.439,93.952,51.439z"/>
<path d="M418.051,85.554c14.132,0,25.587-11.454,25.587-25.587S432.184,34.38,418.051,34.38s-25.587,11.454-25.587,25.587
	S403.927,85.554,418.051,85.554z M418.051,51.439c4.708,0,8.529,3.821,8.529,8.529c0,4.708-3.821,8.529-8.529,8.529
	c-4.708,0-8.529-3.821-8.529-8.529S413.343,51.439,418.051,51.439z"/>
<path d="M468.184,91.934c6.201-9.51,9.527-20.614,9.569-31.966c0.145-32.973-26.465-59.822-59.438-59.967
	s-59.822,26.465-59.967,59.438c-0.111,24.956,15.309,47.344,38.662,56.137l15.454,85.016c-6.311-2.746-13.117-4.162-20-4.162
	c-18.269,0.017-35.139,9.766-44.274,25.587h-47.208c14.764-12.913,23.241-31.566,23.25-51.174v-34.116
	c0-37.681-30.551-68.231-68.231-68.231s-68.231,30.551-68.231,68.231v34.116c0.009,19.608,8.486,38.261,23.25,51.174h-47.208
	c-9.134-15.821-26.005-25.57-44.274-25.587c-6.883,0-13.689,1.416-20,4.162l15.454-85.016
	c30.772-11.685,46.244-46.099,34.559-76.863C137.867,7.941,103.453-7.53,72.689,4.154c-23.173,8.793-38.483,31.02-38.44,55.813
	c0.043,11.352,3.369,22.457,9.569,31.966L0.534,227.987c-0.264,0.827-0.401,1.689-0.401,2.559v85.289
	c0,4.708,3.821,8.529,8.529,8.529h112.292l32.836,180.634c0.742,4.051,4.273,7.002,8.392,7.002h187.636
	c4.119,0,7.65-2.951,8.392-7.002l32.836-180.634h112.292c4.708,0,8.529-3.821,8.529-8.529v-85.289c0-0.87-0.136-1.731-0.401-2.559
	L468.184,91.934z M375.406,59.967c0-23.548,19.096-42.645,42.645-42.645c23.548,0,42.645,19.096,42.645,42.645
	c0.264,23.292-18.397,42.389-41.689,42.653c-2.03,0.026-4.06-0.102-6.073-0.367c-2.081-0.256-4.145-0.657-6.166-1.203l0,0
	C388.276,95.951,375.449,79.149,375.406,59.967z M204.828,170.844v-34.116c0-28.265,22.909-51.174,51.174-51.174
	s51.174,22.909,51.174,51.174v34.116c0,28.265-22.909,51.174-51.174,51.174S204.828,199.108,204.828,170.844z M93.952,17.323
	c23.548,0.094,42.568,19.267,42.474,42.815c-0.077,19.088-12.827,35.796-31.216,40.913c-22.755,6.192-46.218-7.241-52.402-29.988
	c-0.981-3.625-1.484-7.352-1.501-11.096C51.341,36.428,70.412,17.348,93.952,17.323z M209.092,482.149
	c0-7.062,5.731-12.793,12.793-12.793l0,0h25.587v25.587h-25.587C214.824,494.943,209.092,489.211,209.092,482.149z M209.092,426.711
	h38.38v25.587h-38.38c-7.062,0-12.793-5.731-12.793-12.793S202.03,426.711,209.092,426.711z M196.299,396.86
	c0-7.062,5.731-12.793,12.793-12.793h38.38v25.587h-38.38C202.03,409.653,196.299,403.922,196.299,396.86z M315.704,396.86
	c0,7.062-5.731,12.793-12.793,12.793h-38.38v-25.587h38.38C309.981,384.067,315.704,389.79,315.704,396.86z M315.704,439.505
	c0,7.062-5.731,12.793-12.793,12.793h-38.38v-25.587h38.38C309.981,426.711,315.704,432.434,315.704,439.505z M264.53,494.943
	v-25.587h25.587c7.062,0,12.793,5.731,12.793,12.793s-5.731,12.793-12.793,12.793H264.53V494.943z M494.811,307.306H383.935
	c-4.119,0-7.65,2.951-8.392,7.002l-32.836,180.634h-25.732c4.495-9.092,3.906-19.872-1.544-28.427
	c14.917-6.832,21.467-24.461,14.636-39.378c-1.535-3.352-3.684-6.388-6.328-8.955c9.441-9.058,11.744-23.267,5.638-34.841
	c12.171-2.175,22.602-9.979,28.12-21.049l-15.267-7.625c-3.761,7.599-11.531,12.393-20.009,12.341h-57.69v-78.296l78.466-15.693
	l-3.412-16.717l-83.694,16.734l-92.181-16.768l-3.053,16.785l86.816,15.787v78.168h-57.69c-8.452,0.017-16.179-4.768-19.924-12.341
	l-15.267,7.625c5.501,11.053,15.906,18.857,28.06,21.049c-6.107,11.565-3.821,25.774,5.612,34.841
	c-11.778,11.42-12.068,30.227-0.648,42.005c2.567,2.644,5.604,4.793,8.955,6.328c-5.45,8.555-6.038,19.335-1.544,28.427h-25.732
	l-32.836-180.634c-0.742-4.051-4.273-7.002-8.392-7.002H17.191v-75.438l39.787-125.043c1.433,1.143,2.908,2.2,4.435,3.198
	l0.281,0.171c1.689,1.083,3.42,2.09,5.211,2.994c0.409,0.213,0.853,0.401,1.245,0.606c1.586,0.759,3.207,1.458,4.853,2.081
	c0.35,0.128,0.691,0.264,1.041,0.384c4.154,1.484,8.461,2.482,12.845,2.994h0.316c1.962,0.213,3.932,0.324,5.911,0.333
	c0.281,0,0.554,0.051,0.853,0.051c0.299,0,0.597-0.06,0.896-0.06c0.699,0,1.382,0,2.081,0l-17.979,98.808
	c-0.836,4.64,2.243,9.075,6.883,9.911c2.968,0.537,5.996-0.537,7.966-2.823c12.094-14.269,33.468-16.034,47.736-3.94
	c4,3.386,7.156,7.659,9.22,12.469c1.356,3.105,4.426,5.117,7.813,5.117H353.42c3.386,0,6.456-2.013,7.813-5.117
	c7.386-17.186,27.301-25.135,44.487-17.749c4.81,2.064,9.083,5.228,12.469,9.22c3.079,3.565,8.461,3.957,12.026,0.878
	c2.286-1.97,3.352-4.998,2.823-7.966l-17.962-98.791c0.725,0.043,1.441,0,2.166,0c0.264,0,0.537,0.06,0.81,0.06s0.469,0,0.699-0.043
	c6.635-0.017,13.211-1.168,19.454-3.412l0.452-0.162c1.842-0.691,3.65-1.458,5.416-2.328l0.913-0.435
	c1.876-0.955,3.702-2.004,5.467-3.147l0.119-0.068c1.527-0.998,3.011-2.073,4.452-3.215l39.787,125.026L494.811,307.306
	L494.811,307.306z"/>
<path d="M93.099,252.32l-15.267,7.625c6.627,13.365,20.273,21.808,35.19,21.774h23.574v-17.058h-23.574
	C104.579,264.679,96.852,259.894,93.099,252.32z"/>
<path d="M398.98,264.662h-23.574v17.058h23.574c14.951,0.068,28.632-8.384,35.276-21.774l-15.267-7.625
	C415.228,259.92,407.467,264.713,398.98,264.662z"/>
<g>
</g>
<g>
</g>
<g>
</g>
<g>
</g>
<g>
</g>
<g>
</g>
<g>
</g>
<g>
</g>
<g>
</g>
<g>
</g>
<g>
</g>
<g>
</g>
<g>
</g>
<g>
</g>
<g>
</g>
</svg>
